<svg class="svg-icon" style="width: 1em; height: 1em;vertical-align: middle;fill: currentColor;overflow: hidden;" viewBox="0 0 1024 1024" version="1.1" xmlns="http://www.w3.org/2000/svg"><path d="M406.76421 272.382555h208.369573a14.865317 14.865317 0 0 1 14.88338 14.935309 14.865317 14.865317 0 0 1-14.88338 14.937567H406.76421a14.865317 14.865317 0 0 1-14.883379-14.937567 14.863059 14.863059 0 0 1 14.883379-14.935309z m-208.369572 0c-24.53545 0-42.324611 20.710747-44.591437 43.322556L94.267425 913.149076c-2.616784 26.285241 20.058244 46.296071 44.591436 46.296071h744.178013c24.533192 0 47.20822-20.071791 44.593694-46.296071l-59.535776-597.446223c-2.266825-22.550849-20.058244-43.322556-44.591436-43.322556h-89.302536c-19.940839 0-19.358328 29.872876 0 29.872876h89.302536c8.457697 0 13.894466 6.098302 14.942082 16.423195l59.533519 597.448481c0.697658 6.737258-6.482127 13.447422-14.942083 13.447422H138.861119c-8.459955 0-15.639741-6.710164-14.942082-13.447422l59.535776-597.448481c1.045359-10.324893 6.482127-16.423195 14.942083-16.423195h89.302535c19.940839 0 19.475733-29.872876 0-29.872876H198.394638z m312.555488-209.107871c-98.487243 0-178.600556 80.397795-178.600556 179.234995v134.424554c0 19.866332 29.766759 19.866332 29.766759 0V242.509679c0-82.673652 66.453658-149.36212 148.836054-149.36212s148.836054 66.688468 148.836055 149.36212v134.424554c0 19.866332 29.766759 19.604427 29.766759 0V242.509679c-0.004516-98.834943-80.117829-179.234996-178.605071-179.234995z" fill="#040000" /></svg>